<svg aria-hidden="true" style="position: absolute; width: 0; height: 0; overflow: hidden;" version="1.1" xmlns="http://www.w3.org/2000/svg" xmlns:xlink="http://www.w3.org/1999/xlink">
<defs>
<symbol id="icon-calendar" viewBox="0 0 32 32">
<title>calendar</title>
<path d="M28.25 2.5h-1.5v-2.5h-2.5v2.5h-16.5v-2.5h-2.5v2.5h-1.5c-2.068 0-3.75 1.682-3.75 3.75v22c0 2.068 1.682 3.75 3.75 3.75h24.5c2.068 0 3.75-1.682 3.75-3.75v-22c0-2.068-1.682-3.75-3.75-3.75zM29.5 28.25c0 0.689-0.561 1.25-1.25 1.25h-24.5c-0.689 0-1.25-0.561-1.25-1.25v-16.5h27v16.5zM29.5 9.25h-27v-3c0-0.689 0.561-1.25 1.25-1.25h1.5v2.5h2.5v-2.5h16.5v2.5h2.5v-2.5h1.5c0.689 0 1.25 0.561 1.25 1.25v3z"></path>
<path d="M4.75 14.375h2.5v2.5h-2.5v-2.5z"></path>
<path d="M9.75 14.375h2.5v2.5h-2.5v-2.5z"></path>
<path d="M14.75 14.375h2.5v2.5h-2.5v-2.5z"></path>
<path d="M19.75 14.375h2.5v2.5h-2.5v-2.5z"></path>
<path d="M24.75 14.375h2.5v2.5h-2.5v-2.5z"></path>
<path d="M4.75 19.375h2.5v2.5h-2.5v-2.5z"></path>
<path d="M9.75 19.375h2.5v2.5h-2.5v-2.5z"></path>
<path d="M14.75 19.375h2.5v2.5h-2.5v-2.5z"></path>
<path d="M19.75 19.375h2.5v2.5h-2.5v-2.5z"></path>
<path d="M4.75 24.375h2.5v2.5h-2.5v-2.5z"></path>
<path d="M9.75 24.375h2.5v2.5h-2.5v-2.5z"></path>
<path d="M14.75 24.375h2.5v2.5h-2.5v-2.5z"></path>
<path d="M19.75 24.375h2.5v2.5h-2.5v-2.5z"></path>
<path d="M24.75 19.375h2.5v2.5h-2.5v-2.5z"></path>
</symbol>
<symbol id="icon-unlink" viewBox="0 0 32 32">
<title>unlink</title>
<path d="M29.789 2.213c-2.95-2.95-7.751-2.949-10.702 0l-5.351 5.351c-0.455 0.455-0.455 1.192 0 1.646s1.192 0.455 1.646 0l5.351-5.351c0.984-0.984 2.3-1.526 3.704-1.526s2.72 0.543 3.705 1.527 1.527 2.3 1.527 3.705c0 1.404-0.543 2.72-1.527 3.704l-6.997 6.998c-2.043 2.042-5.367 2.042-7.41 0-0.455-0.455-1.192-0.455-1.646 0s-0.455 1.192 0 1.646c1.475 1.475 3.413 2.213 5.351 2.213s3.876-0.738 5.351-2.213l6.998-6.998c1.424-1.424 2.209-3.325 2.209-5.351s-0.785-3.927-2.209-5.351z"></path>
<path d="M15.794 23.617l-4.528 4.528c-0.984 0.984-2.3 1.527-3.705 1.527s-2.72-0.543-3.705-1.527c-2.043-2.043-2.043-5.367 0-7.409l6.586-6.586c0.984-0.984 2.3-1.526 3.705-1.526s2.72 0.543 3.704 1.526c0.455 0.455 1.192 0.455 1.646 0s0.455-1.192 0-1.646c-2.95-2.95-7.75-2.95-10.702 0l-6.586 6.587c-1.424 1.424-2.209 3.325-2.209 5.351s0.785 3.926 2.209 5.35c1.424 1.424 3.325 2.209 5.35 2.209s3.927-0.785 5.351-2.209l4.528-4.528c0.455-0.455 0.455-1.192 0-1.646s-1.191-0.455-1.646 0z"></path>
</symbol>
<symbol id="icon-envelope" viewBox="0 0 32 32">
<title>envelope</title>
<path d="M29 4h-26c-1.654 0-3 1.346-3 3v18c0 1.654 1.346 3 3 3h26c1.654 0 3-1.346 3-3v-18c0-1.654-1.346-3-3-3zM29 6c0.136 0 0.265 0.028 0.383 0.077l-13.383 11.599-13.383-11.599c0.118-0.049 0.247-0.077 0.383-0.077zM29 26h-26c-0.552 0-1-0.448-1-1v-16.81l13.345 11.565c0.188 0.163 0.422 0.244 0.655 0.244s0.467-0.081 0.655-0.244l13.345-11.565v16.81c-0 0.552-0.448 1-1 1z"></path>
</symbol>
<symbol id="icon-placeholder" viewBox="0 0 32 32">
<title>placeholder</title>
<path d="M16 0c-6.203 0-11.25 5.047-11.25 11.25 0 2.096 0.581 4.141 1.679 5.916l8.93 14.391c0.171 0.276 0.472 0.443 0.797 0.443 0.003 0 0.005 0 0.007 0 0.327-0.003 0.629-0.175 0.797-0.456l8.703-14.53c1.038-1.737 1.587-3.73 1.587-5.764 0-6.203-5.047-11.25-11.25-11.25zM24.054 16.051l-7.912 13.21-8.119-13.084c-0.915-1.477-1.41-3.181-1.41-4.928 0-5.169 4.218-9.387 9.387-9.387s9.381 4.218 9.381 9.387c0 1.695-0.463 3.355-1.327 4.801z"></path>
<path d="M16 5.625c-3.102 0-5.625 2.523-5.625 5.625 0 3.082 2.482 5.625 5.625 5.625 3.181 0 5.625-2.577 5.625-5.625 0-3.102-2.523-5.625-5.625-5.625zM16 15.012c-2.079 0-3.762-1.69-3.762-3.762 0-2.068 1.695-3.763 3.762-3.763s3.756 1.695 3.756 3.763c0 2.043-1.645 3.762-3.756 3.762z"></path>
</symbol>
<symbol id="icon-lock" viewBox="0 0 32 32">
<title>lock</title>
<path d="M14.425 22.145l-0.421 3.782c-0.021 0.188 0.040 0.377 0.166 0.518s0.307 0.222 0.497 0.222h2.667c0.189 0 0.37-0.081 0.497-0.222s0.187-0.33 0.166-0.518l-0.421-3.782c0.683-0.497 1.091-1.283 1.091-2.145 0-1.471-1.196-2.667-2.667-2.667s-2.667 1.196-2.667 2.667c0 0.862 0.408 1.648 1.091 2.145zM16 18.667c0.735 0 1.333 0.598 1.333 1.333 0 0.511-0.29 0.969-0.758 1.195-0.255 0.124-0.404 0.393-0.372 0.674l0.385 3.464h-1.177l0.385-3.464c0.031-0.281-0.118-0.55-0.372-0.674-0.467-0.227-0.758-0.684-0.758-1.195-0-0.735 0.598-1.333 1.333-1.333z"></path>
<path d="M27.333 12h-2v-2.667c0-5.146-4.187-9.333-9.333-9.333s-9.333 4.187-9.333 9.333v2.667h-2c-0.369 0-0.667 0.298-0.667 0.667v16.667c0 1.471 1.196 2.667 2.667 2.667h18.667c1.471 0 2.667-1.196 2.667-2.667v-16.667c0-0.368-0.298-0.667-0.667-0.667zM8 9.333c0-4.411 3.589-8 8-8s8 3.589 8 8v2.667h-1.333v-2.667c0-3.676-2.991-6.667-6.667-6.667s-6.667 2.991-6.667 6.667v2.667h-1.333v-2.667zM21.333 9.333v2.667h-10.667v-2.667c0-2.941 2.393-5.333 5.333-5.333s5.333 2.393 5.333 5.333zM26.667 29.333c0 0.735-0.598 1.333-1.333 1.333h-18.667c-0.735 0-1.333-0.598-1.333-1.333v-16h21.333v16z"></path>
</symbol>
<symbol id="icon-twitter" viewBox="0 0 32 32">
<title>twitter</title>
<path d="M32 6.435c-2.013 0.093-1.969 0.085-2.197 0.104l1.192-3.405s-3.721 1.369-4.665 1.614c-2.478-2.227-6.16-2.325-8.793-0.707-2.156 1.325-3.313 3.602-2.927 6.262-4.196-0.582-7.731-2.571-10.523-5.924l-0.883-1.060-0.66 1.211c-0.834 1.531-1.111 3.281-0.78 4.928 0.136 0.676 0.366 1.32 0.686 1.924l-0.757-0.293-0.090 1.265c-0.091 1.285 0.337 2.786 1.145 4.013 0.228 0.346 0.52 0.725 0.892 1.1l-0.391-0.060 0.478 1.45c0.628 1.905 1.931 3.379 3.623 4.198-1.69 0.717-3.055 1.175-5.298 1.913l-2.053 0.675 1.896 1.037c0.723 0.395 3.277 1.715 5.801 2.111 5.61 0.88 11.927 0.163 16.179-3.666 3.582-3.226 4.757-7.814 4.513-12.59-0.037-0.723 0.161-1.413 0.558-1.942 0.794-1.060 3.048-4.15 3.053-4.157zM27.448 9.47c-0.658 0.879-0.988 2.002-0.929 3.161 0.246 4.817-1.064 8.552-3.896 11.102-3.307 2.979-8.642 4.148-14.636 3.208-1.085-0.17-2.207-0.551-3.136-0.932 1.881-0.647 3.334-1.224 5.68-2.334l3.275-1.55-3.616-0.231c-1.732-0.111-3.174-0.95-4.061-2.313 0.471-0.027 0.925-0.104 1.376-0.23l3.449-0.96-3.477-0.852c-1.69-0.414-2.653-1.425-3.163-2.2-0.335-0.51-0.554-1.031-0.686-1.513 0.349 0.094 0.755 0.16 1.411 0.225l3.218 0.318-2.55-1.989c-1.837-1.433-2.574-3.586-2.034-5.656 5.734 5.948 12.467 5.501 13.145 5.658-0.149-1.449-0.153-1.452-0.192-1.59-0.868-3.068 1.034-4.626 1.892-5.153 1.792-1.101 4.636-1.267 6.607 0.547 0.426 0.392 1.001 0.546 1.54 0.412 0.483-0.12 0.88-0.247 1.269-0.386l-0.809 2.309 1.032 0.001c-0.195 0.261-0.428 0.574-0.709 0.949z"></path>
</symbol>
<symbol id="icon-instagram" viewBox="0 0 32 32">
<title>instagram</title>
<path d="M31.969 9.408c-0.075-1.7-0.35-2.869-0.744-3.882-0.406-1.075-1.031-2.038-1.85-2.838-0.8-0.813-1.769-1.444-2.832-1.844-1.019-0.394-2.182-0.669-3.882-0.744-1.713-0.081-2.257-0.1-6.601-0.1s-4.888 0.019-6.595 0.094c-1.7 0.075-2.869 0.35-3.882 0.744-1.075 0.406-2.038 1.031-2.838 1.85-0.813 0.8-1.444 1.769-1.844 2.832-0.394 1.019-0.669 2.182-0.744 3.882-0.081 1.713-0.1 2.257-0.1 6.601s0.019 4.888 0.094 6.595c0.075 1.7 0.35 2.869 0.744 3.882 0.406 1.075 1.038 2.038 1.85 2.838 0.8 0.813 1.769 1.444 2.832 1.844 1.019 0.394 2.182 0.669 3.882 0.744 1.706 0.075 2.25 0.094 6.595 0.094s4.888-0.019 6.595-0.094c1.7-0.075 2.869-0.35 3.882-0.744 2.151-0.831 3.851-2.532 4.682-4.682 0.394-1.019 0.669-2.182 0.744-3.882 0.075-1.707 0.094-2.25 0.094-6.595s-0.006-4.888-0.081-6.595zM29.087 22.473c-0.069 1.563-0.331 2.407-0.55 2.969-0.538 1.394-1.644 2.5-3.038 3.038-0.563 0.219-1.413 0.481-2.969 0.55-1.688 0.075-2.194 0.094-6.464 0.094s-4.782-0.019-6.464-0.094c-1.563-0.069-2.407-0.331-2.969-0.55-0.694-0.256-1.325-0.663-1.838-1.194-0.531-0.519-0.938-1.144-1.194-1.838-0.219-0.563-0.481-1.413-0.55-2.969-0.075-1.688-0.094-2.194-0.094-6.464s0.019-4.782 0.094-6.464c0.069-1.563 0.331-2.407 0.55-2.969 0.256-0.694 0.663-1.325 1.2-1.838 0.519-0.531 1.144-0.938 1.838-1.194 0.563-0.219 1.413-0.481 2.969-0.55 1.688-0.075 2.194-0.094 6.464-0.094 4.276 0 4.782 0.019 6.464 0.094 1.563 0.069 2.407 0.331 2.969 0.55 0.694 0.256 1.325 0.662 1.838 1.194 0.531 0.519 0.938 1.144 1.194 1.838 0.219 0.563 0.481 1.413 0.55 2.969 0.075 1.688 0.094 2.194 0.094 6.464s-0.019 4.77-0.094 6.458z"></path>
<path d="M16.059 7.783c-4.538 0-8.22 3.682-8.22 8.22s3.682 8.22 8.22 8.22c4.538 0 8.22-3.682 8.22-8.22s-3.682-8.22-8.22-8.22zM16.059 21.335c-2.944 0-5.332-2.388-5.332-5.332s2.388-5.332 5.332-5.332c2.944 0 5.332 2.388 5.332 5.332s-2.388 5.332-5.332 5.332z"></path>
<path d="M26.524 7.458c0 1.060-0.859 1.919-1.919 1.919s-1.919-0.859-1.919-1.919c0-1.060 0.859-1.919 1.919-1.919s1.919 0.859 1.919 1.919z"></path>
</symbol>
<symbol id="icon-facebook" viewBox="0 0 32 32">
<title>facebook</title>
<path d="M18.125 31.938h-5.125c-0.856 0-1.552-0.696-1.552-1.552v-11.559h-2.99c-0.856 0-1.552-0.697-1.552-1.552v-4.953c0-0.856 0.696-1.552 1.552-1.552h2.99v-2.48c0-2.459 0.772-4.551 2.233-6.050 1.467-1.506 3.518-2.301 5.93-2.301l3.908 0.006c0.855 0.001 1.55 0.698 1.55 1.552v4.599c0 0.856-0.696 1.552-1.552 1.552l-2.631 0.001c-0.802 0-1.007 0.161-1.051 0.21-0.072 0.082-0.158 0.313-0.158 0.951v1.959h3.642c0.274 0 0.54 0.068 0.768 0.195 0.492 0.275 0.799 0.795 0.799 1.358l-0.002 4.953c0 0.855-0.696 1.552-1.552 1.552h-3.654v11.559c0 0.856-0.697 1.552-1.552 1.552zM13.324 30.062h4.477v-12.075c0-0.572 0.465-1.036 1.036-1.036h4.17l0.002-4.305h-4.172c-0.571 0-1.036-0.465-1.036-1.036v-2.799c0-0.733 0.074-1.566 0.628-2.193 0.668-0.757 1.722-0.845 2.456-0.845l2.308-0.001v-3.952l-3.583-0.006c-3.876 0-6.285 2.481-6.285 6.476v3.32c0 0.571-0.465 1.036-1.036 1.036h-3.506v4.305h3.506c0.571 0 1.036 0.465 1.036 1.036zM23.516 1.82h0z"></path>
</symbol>
<symbol id="icon-user" viewBox="0 0 32 32">
<title>user</title>
<path d="M15.772 15.415c2.118 0 3.951-0.76 5.45-2.258s2.258-3.332 2.258-5.449c0-2.117-0.76-3.951-2.258-5.449s-3.332-2.258-5.449-2.258c-2.118 0-3.951 0.76-5.449 2.258s-2.258 3.332-2.258 5.449c0 2.118 0.76 3.951 2.258 5.45s3.332 2.258 5.449 2.258zM11.649 3.584c1.15-1.15 2.498-1.708 4.123-1.708s2.974 0.559 4.124 1.708c1.15 1.15 1.709 2.499 1.709 4.123s-0.559 2.974-1.709 4.124c-1.15 1.15-2.499 1.709-4.124 1.709s-2.973-0.559-4.123-1.709c-1.15-1.15-1.709-2.499-1.709-4.124s0.559-2.973 1.709-4.123z"></path>
<path d="M29.258 24.606c-0.043-0.624-0.131-1.304-0.259-2.022-0.13-0.724-0.297-1.408-0.497-2.033-0.207-0.646-0.488-1.284-0.836-1.896-0.361-0.635-0.784-1.188-1.26-1.642-0.497-0.476-1.106-0.858-1.81-1.137-0.702-0.278-1.479-0.418-2.311-0.418-0.327 0-0.643 0.134-1.253 0.531-0.375 0.245-0.815 0.528-1.305 0.841-0.419 0.267-0.987 0.517-1.688 0.744-0.684 0.221-1.379 0.334-2.065 0.334s-1.38-0.112-2.065-0.334c-0.701-0.226-1.269-0.477-1.687-0.744-0.486-0.31-0.925-0.593-1.306-0.842-0.61-0.397-0.926-0.531-1.252-0.531-0.832 0-1.609 0.141-2.311 0.419-0.704 0.279-1.313 0.661-1.811 1.137-0.476 0.455-0.899 1.008-1.26 1.642-0.347 0.612-0.629 1.25-0.836 1.896-0.2 0.625-0.367 1.309-0.497 2.033-0.129 0.717-0.216 1.398-0.259 2.023-0.042 0.611-0.064 1.247-0.064 1.89 0 1.67 0.531 3.023 1.578 4.020 1.034 0.984 2.402 1.483 4.067 1.483h15.408c1.664 0 3.032-0.499 4.066-1.483 1.047-0.997 1.578-2.349 1.578-4.020-0-0.645-0.022-1.281-0.065-1.89zM26.451 29.158c-0.683 0.65-1.591 0.967-2.774 0.967h-15.408c-1.183 0-2.091-0.316-2.774-0.966-0.67-0.638-0.996-1.509-0.996-2.662 0-0.6 0.020-1.192 0.059-1.76 0.039-0.558 0.117-1.17 0.234-1.821 0.115-0.643 0.262-1.246 0.437-1.792 0.168-0.524 0.396-1.042 0.68-1.542 0.271-0.476 0.582-0.885 0.926-1.214 0.322-0.308 0.727-0.56 1.204-0.749 0.442-0.175 0.938-0.27 1.477-0.285 0.066 0.035 0.183 0.102 0.372 0.225 0.386 0.251 0.83 0.538 1.321 0.852 0.554 0.353 1.267 0.672 2.119 0.947 0.871 0.282 1.76 0.425 2.642 0.425s1.771-0.143 2.642-0.425c0.853-0.276 1.566-0.594 2.121-0.948 0.503-0.321 0.935-0.6 1.32-0.851 0.189-0.123 0.306-0.19 0.372-0.225 0.539 0.014 1.035 0.11 1.477 0.285 0.477 0.189 0.883 0.441 1.204 0.749 0.344 0.329 0.655 0.737 0.926 1.214 0.284 0.499 0.513 1.018 0.68 1.541 0.175 0.547 0.322 1.15 0.438 1.792 0.117 0.652 0.196 1.265 0.234 1.822v0c0.040 0.566 0.060 1.158 0.060 1.759-0 1.153-0.326 2.024-0.996 2.661z"></path>
</symbol>
</defs>
</svg>
